<mxfile host="app.diagrams.net" modified="2023-11-02T08:32:31.713Z" agent="Mozilla/5.0 (Windows NT 10.0; Win64; x64) AppleWebKit/537.36 (KHTML, like Gecko) Chrome/118.0.0.0 Safari/537.36" version="22.0.8" etag="Z-Qm_d6Gdyru70xxTmey" type="github">
  <diagram name="Page-1" id="B0N-tMBcgLjMYS-DXcY-">
    <mxGraphModel>
      <root>
        <mxCell id="0" />
        <mxCell id="1" parent="0" />
      </root>
    </mxGraphModel>
  </diagram>
</mxfile>
